<svg width="85" height="60" viewBox="0 0 85 60" fill="none" xmlns="http://www.w3.org/2000/svg">
<path d="M22.8474 23.0512C26.4301 23.0512 29.3344 20.1469 29.3344 16.5642C29.3344 12.9815 26.4301 10.0771 22.8474 10.0771C19.2647 10.0771 16.3604 12.9815 16.3604 16.5642C16.3604 20.1469 19.2647 23.0512 22.8474 23.0512Z" fill="#941EF3" stroke="#941EF3" stroke-width="0.535329" stroke-miterlimit="10"/>
<path d="M42.9548 16.8141C46.5375 16.8141 49.4418 13.9098 49.4418 10.3271C49.4418 6.74443 46.5375 3.84009 42.9548 3.84009C39.3721 3.84009 36.4678 6.74443 36.4678 10.3271C36.4678 13.9098 39.3721 16.8141 42.9548 16.8141Z" fill="#941EF3" stroke="#941EF3" stroke-width="0.535329" stroke-miterlimit="10"/>
<path d="M62.1521 22.8185C65.7348 22.8185 68.6391 19.9142 68.6391 16.3315C68.6391 12.7488 65.7348 9.84448 62.1521 9.84448C58.5694 9.84448 55.665 12.7488 55.665 16.3315C55.665 19.9142 58.5694 22.8185 62.1521 22.8185Z" fill="#941EF3" stroke="#941EF3" stroke-width="0.535329" stroke-miterlimit="10"/>
<path d="M40.2383 56.1597C46.9289 56.1597 52.3526 50.736 52.3526 44.0455C52.3526 37.3549 46.9289 31.9312 40.2383 31.9312C33.5478 31.9312 28.124 37.3549 28.124 44.0455C28.124 50.736 33.5478 56.1597 40.2383 56.1597Z" fill="#941EF3" stroke="#941EF3" stroke-width="0.535329" stroke-miterlimit="10"/>
<path d="M32.7863 48.1256C32.9627 48.3101 33.3548 48.6013 34.1722 48.806C34.1722 48.806 34.5119 49.7887 34.779 50.0387C34.779 50.0387 34.8596 50.9135 35.672 51.3963L35.7133 51.863C35.7325 52.0757 35.92 52.2218 36.1316 52.1926C36.4814 52.1442 36.9793 51.9638 37.2454 51.357C37.3089 51.2129 37.2938 51.0446 37.2131 50.9085L35.2618 47.6448C35.2618 47.6448 38.7744 45.6048 42.1278 47.4372C42.2125 47.4836 42.283 47.5521 42.3324 47.6347C42.6005 48.0823 43.6276 49.5982 45.073 49.2515C46.6534 48.8735 46.9286 39.5249 42.7154 36.2189C41.9776 35.6394 40.888 35.8561 40.4244 36.6715C40.1835 37.0958 40.0071 37.6865 40.0081 38.5069C40.0081 38.648 39.9577 38.7841 39.86 38.8849C39.1655 39.5995 36.2425 42.4963 33.9757 43.0124C31.3863 43.602 29.314 43.858 29.6295 45.4415C29.9349 46.9725 30.3068 48.7435 32.4305 48.0299C32.5565 47.9875 32.6936 48.0288 32.7853 48.1246L32.7863 48.1256Z" fill="white" stroke="#941EF3" stroke-width="0.535329" stroke-miterlimit="10"/>
<path d="M41.2158 39.4594C41.2158 39.4594 41.2511 35.4468 42.8587 37.4828C44.4664 39.5188 46.4188 46.3778 44.669 48.5086C43.8697 49.1284 42.5735 46.1752 42.5735 46.1752C42.5735 46.1752 44.6569 45.8658 43.8354 42.0074C43.3234 39.4594 41.7752 38.8637 41.2158 39.4594Z" fill="#941EF3" stroke="#941EF3" stroke-width="0.535329" stroke-miterlimit="10"/>
<path d="M46.1406 38.7689L48.2532 36.4346" stroke="white" stroke-width="0.535329" stroke-miterlimit="10" stroke-linecap="round"/>
<path d="M47.3252 42.0548L50.4921 40.8887" stroke="white" stroke-width="0.535329" stroke-miterlimit="10" stroke-linecap="round"/>
<path d="M47.5625 45.7458L50.4915 46.5089" stroke="white" stroke-width="0.535329" stroke-miterlimit="10" stroke-linecap="round"/>
<path d="M26.3544 14.8689C26.3544 16.0915 25.7355 17.169 24.7931 17.807L24.7901 17.81C24.7336 17.8795 24.144 18.6526 24.6026 19.2201C24.6842 19.3209 24.7316 19.4408 24.7316 19.5668V19.8631H20.9599V19.5668C20.9599 19.4408 21.0073 19.3209 21.0859 19.2201C21.5475 18.6516 20.9236 17.8997 20.8652 17.8322L20.8591 17.8261C19.8996 17.1911 19.2666 16.1026 19.2666 14.8689C19.2666 12.9105 20.8531 11.324 22.8095 11.324C24.7659 11.324 26.3544 12.9105 26.3544 14.8689Z" fill="white" stroke="#941EF3" stroke-width="0.535329" stroke-miterlimit="10"/>
<path d="M24.793 17.8072V17.804" stroke="#941EF3" stroke-width="0.535329" stroke-miterlimit="10"/>
<path d="M20.9541 20.4668C20.9541 20.4668 21.0156 21.4848 22.8147 21.5382C24.6139 21.5916 24.7409 20.4668 24.7409 20.4668H20.9541Z" fill="white" stroke="#941EF3" stroke-width="0.535329" stroke-miterlimit="10"/>
<path d="M22.8003 19.4853H23.1047V16.9402C23.5371 16.6308 24.036 16.1258 23.8344 15.8849C23.6722 15.6914 23.1027 16.3294 22.886 16.5875C22.8416 16.6399 22.761 16.6399 22.7166 16.5865C22.504 16.3274 21.9486 15.6914 21.7873 15.8849C21.5857 16.1258 22.0847 16.6318 22.5171 16.9402V19.4853H22.8013H22.8003Z" fill="#941EF3" stroke="#941EF3" stroke-width="0.535329" stroke-miterlimit="10"/>
<path d="M38.9388 7.8254L38.5699 7.21056L39.8913 5.81257L40.7309 6.28327C40.7743 6.30746 40.8257 6.30948 40.871 6.29032L41.501 6.01415C41.5635 5.98694 41.6099 5.9315 41.627 5.86599L41.8709 4.90039H43.9251L44.1498 5.84482C44.1639 5.9063 44.2053 5.95771 44.2617 5.98492L44.8735 6.28629C44.9592 6.32863 45.061 6.32661 45.1447 6.27924L45.9409 5.83776L47.3157 7.21258L46.8773 8.06529C46.846 8.12576 46.844 8.19833 46.8722 8.25982L47.1746 8.92404C47.2018 8.98452 47.2553 9.02988 47.3198 9.04701L48.1463 9.27178V11.1828L47.3752 11.4267C47.2946 11.4519 47.227 11.5104 47.1908 11.587L46.8692 12.2653C46.8259 12.357 46.8309 12.4649 46.8823 12.5526L47.2976 13.2531L46.0115 14.5392L45.1588 14.2197C45.0852 14.1925 45.0046 14.1935 44.932 14.2247L44.3232 14.4818C44.2365 14.518 44.172 14.5926 44.1478 14.6823L43.9351 15.4605H42.0957L41.7983 14.6934C41.762 14.5987 41.6875 14.5231 41.5927 14.4848L40.8972 14.2026C40.7884 14.1582 40.6644 14.1683 40.5646 14.2308L39.9196 14.6299L38.6496 13.3599L39.0215 12.5203C39.0618 12.4286 39.0638 12.3248 39.0265 12.2321L38.7655 11.588C38.7211 11.4771 38.6254 11.3955 38.5095 11.3673L37.6406 11.1586V9.39071L38.4591 9.19215C38.5861 9.16191 38.6869 9.06616 38.7252 8.94118L38.9761 8.12173C39.0064 8.02195 38.9933 7.9141 38.9398 7.82439L38.9388 7.8254Z" fill="white" stroke="#941EF3" stroke-width="0.535329" stroke-miterlimit="10"/>
<path d="M42.7571 12.5669C44.1482 12.5669 45.2759 11.4392 45.2759 10.0481C45.2759 8.65701 44.1482 7.5293 42.7571 7.5293C41.366 7.5293 40.2383 8.65701 40.2383 10.0481C40.2383 11.4392 41.366 12.5669 42.7571 12.5669Z" fill="#941EF3" stroke="#941EF3" stroke-width="0.535329" stroke-miterlimit="10"/>
<path d="M58.6313 16.3897H57.8904C57.6163 16.3897 57.3945 16.168 57.3945 15.8938V12.858C57.3945 12.5838 57.6163 12.3621 57.8904 12.3621H63.2899C63.5641 12.3621 63.7858 12.5838 63.7858 12.858V14.9776C63.7858 15.2498 63.5671 15.4705 63.295 15.4735L61.6026 15.4897C61.1974 15.4937 60.8366 15.784 60.7862 16.1861C60.7862 16.1932 60.7842 16.2003 60.7842 16.2063C60.7761 16.2789 60.7197 16.3353 60.6471 16.3353H60.2046L59.2945 18.7009L58.6313 16.3887V16.3897Z" fill="white" stroke="#941EF3" stroke-width="0.535329" stroke-miterlimit="10"/>
<path d="M61.8027 15.9211H66.4018C66.6952 15.9211 66.933 16.159 66.933 16.4523V18.8512C66.933 19.1445 66.6952 19.3824 66.4018 19.3824H65.8001L65.3314 21.3428L64.4072 19.3048H61.8027C61.5094 19.3048 61.2715 19.0669 61.2715 18.7736V16.4523C61.2715 16.159 61.5094 15.9211 61.8027 15.9211Z" fill="white" stroke="#941EF3" stroke-width="0.535329" stroke-miterlimit="10"/>
<path d="M58.6993 14.8073C58.8919 14.8073 59.0481 14.6512 59.0481 14.4586C59.0481 14.266 58.8919 14.1099 58.6993 14.1099C58.5067 14.1099 58.3506 14.266 58.3506 14.4586C58.3506 14.6512 58.5067 14.8073 58.6993 14.8073Z" fill="#941EF3" stroke="#941EF3" stroke-width="0.535329" stroke-miterlimit="10"/>
<path d="M60.59 14.8073C60.7826 14.8073 60.9387 14.6512 60.9387 14.4586C60.9387 14.266 60.7826 14.1099 60.59 14.1099C60.3974 14.1099 60.2412 14.266 60.2412 14.4586C60.2412 14.6512 60.3974 14.8073 60.59 14.8073Z" fill="#941EF3" stroke="#941EF3" stroke-width="0.535329" stroke-miterlimit="10"/>
<path d="M62.5909 14.8073C62.7835 14.8073 62.9397 14.6512 62.9397 14.4586C62.9397 14.266 62.7835 14.1099 62.5909 14.1099C62.3983 14.1099 62.2422 14.266 62.2422 14.4586C62.2422 14.6512 62.3983 14.8073 62.5909 14.8073Z" fill="#941EF3" stroke="#941EF3" stroke-width="0.535329" stroke-miterlimit="10"/>
<path d="M62.3966 17.9512C62.5892 17.9512 62.7453 17.795 62.7453 17.6024C62.7453 17.4098 62.5892 17.2537 62.3966 17.2537C62.204 17.2537 62.0479 17.4098 62.0479 17.6024C62.0479 17.795 62.204 17.9512 62.3966 17.9512Z" fill="#941EF3" stroke="#941EF3" stroke-width="0.535329" stroke-miterlimit="10"/>
<path d="M64.1027 17.9512C64.2953 17.9512 64.4514 17.795 64.4514 17.6024C64.4514 17.4098 64.2953 17.2537 64.1027 17.2537C63.91 17.2537 63.7539 17.4098 63.7539 17.6024C63.7539 17.795 63.91 17.9512 64.1027 17.9512Z" fill="#941EF3" stroke="#941EF3" stroke-width="0.535329" stroke-miterlimit="10"/>
<path d="M27.5055 39.4816C26.5066 39.4443 24.1803 39.154 22.5707 37.368C20.2756 34.8219 20.8743 30.7892 23.7046 28.856C24.771 28.1273 25.9845 27.7352 27.0288 27.9227C27.3452 27.9791 27.6305 27.7281 27.6335 27.4076C27.6506 25.8363 28.1355 22.0858 32.1803 20.467C37.1494 18.4784 40.6025 20.339 42.6365 22.3256C42.7877 22.4728 43.0095 22.5232 43.204 22.4416C44.2835 21.994 47.9806 20.8752 51.1707 24.8697C51.2614 24.9836 51.3934 25.0591 51.5376 25.0712C52.4961 25.1539 56.3151 25.6992 57.7434 29.1876C57.828 29.3953 58.0397 29.5223 58.2625 29.5051C59.2674 29.4245 61.9817 29.4789 63.1771 32.2003C64.31 34.7816 63.1086 37.7671 60.5434 38.9363C60.5222 38.9464 60.5011 38.9555 60.4799 38.9645C59.7018 39.3133 58.8581 39.4866 58.0064 39.4866H53.626C53.122 39.4866 52.6614 39.2075 52.4255 38.7619C51.3581 36.7441 47.8868 31.1783 41.8725 30.7267C34.8221 30.1966 28.708 35.7704 28.0468 39.0653C27.9964 39.3173 27.7625 39.4917 27.5055 39.4816Z" fill="#941EF3" stroke="#941EF3" stroke-width="0.535329" stroke-miterlimit="10"/>
</svg>
