<svg width="41" height="40" viewBox="0 0 41 40" fill="none" xmlns="http://www.w3.org/2000/svg">
<path d="M20.6647 3.33398C29.8697 3.33398 37.3314 10.7957 37.3314 20.0007C37.3314 29.2057 29.8697 36.6673 20.6647 36.6673C11.4597 36.6673 3.99805 29.2057 3.99805 20.0007C3.99805 10.7957 11.4597 3.33398 20.6647 3.33398ZM26.5564 13.969L18.3064 22.219L14.773 18.684C14.6183 18.5291 14.4346 18.4063 14.2324 18.3224C14.0301 18.2386 13.8134 18.1954 13.5945 18.1953C13.1524 18.1952 12.7283 18.3706 12.4155 18.6832C12.1028 18.9957 11.927 19.4196 11.9269 19.8617C11.9267 20.3038 12.1022 20.7279 12.4147 21.0406L17.0114 25.6373C17.1816 25.8076 17.3838 25.9428 17.6063 26.035C17.8287 26.1271 18.0672 26.1746 18.308 26.1746C18.5489 26.1746 18.7873 26.1271 19.0098 26.035C19.2323 25.9428 19.4345 25.8076 19.6047 25.6373L28.9147 16.3273C29.2274 16.0146 29.4031 15.5904 29.4031 15.1482C29.4031 14.7059 29.2274 14.2817 28.9147 13.969C28.602 13.6562 28.1778 13.4806 27.7355 13.4806C27.2933 13.4806 26.8691 13.6562 26.5564 13.969Z" fill="#941EF3"/>
</svg>
