<svg width="86" height="60" viewBox="0 0 86 60" fill="none" xmlns="http://www.w3.org/2000/svg">
<path d="M22.5809 48.1509C32.1455 48.1509 39.8992 40.3972 39.8992 30.8326C39.8992 21.268 32.1455 13.5144 22.5809 13.5144C13.0163 13.5144 5.2627 21.268 5.2627 30.8326C5.2627 40.3972 13.0163 48.1509 22.5809 48.1509Z" fill="white" stroke="#941EF3" stroke-width="2.14132" stroke-miterlimit="10"/>
<path d="M12.2252 23.009H32.7859C33.1085 23.009 33.3695 23.2711 33.3695 23.5926V27.0942H11.6416V23.5926C11.6416 23.2701 11.9037 23.009 12.2252 23.009Z" stroke="#941EF3" stroke-width="2.14132" stroke-miterlimit="10"/>
<path d="M11.6416 28.1484H33.3706V38.9061C33.3706 39.2226 33.1135 39.4806 32.796 39.4806H12.2151C11.8987 39.4806 11.6406 39.2236 11.6406 38.9061V28.1484H11.6416Z" stroke="#941EF3" stroke-width="2.14132" stroke-miterlimit="10"/>
<path d="M24.4015 30.8325C24.2584 31.142 21.54 33.5267 21.54 33.5267L24.1758 36.0314" stroke="#941EF3" stroke-width="2.14132" stroke-miterlimit="10"/>
<path d="M28.1992 30.8325C28.3423 31.142 31.0607 33.5267 31.0607 33.5267L28.425 36.0314" stroke="#941EF3" stroke-width="2.14132" stroke-miterlimit="10"/>
<path d="M27.7595 29.7581L24.8506 37.3538" stroke="#941EF3" stroke-width="2.14132" stroke-miterlimit="10"/>
<path d="M13.3018 30.5806H14.979" stroke="#941EF3" stroke-width="2.14132" stroke-miterlimit="10"/>
<path d="M13.3018 32.5107H14.979" stroke="#941EF3" stroke-width="2.14132" stroke-miterlimit="10"/>
<path d="M13.3018 34.4419H14.979" stroke="#941EF3" stroke-width="2.14132" stroke-miterlimit="10"/>
<path d="M13.3018 36.3721H14.979" stroke="#941EF3" stroke-width="2.14132" stroke-miterlimit="10"/>
<path d="M15.9785 30.5806H19.2976" stroke="#941EF3" stroke-width="2.14132" stroke-miterlimit="10"/>
<path d="M15.9785 32.5107H19.2976" stroke="#941EF3" stroke-width="2.14132" stroke-miterlimit="10"/>
<path d="M15.9785 34.4419H19.2976" stroke="#941EF3" stroke-width="2.14132" stroke-miterlimit="10"/>
<path d="M15.9785 36.3721H19.2976" stroke="#941EF3" stroke-width="2.14132" stroke-miterlimit="10"/>
<path d="M13.5127 25.5327H22.0085" stroke="#941EF3" stroke-width="2.14132" stroke-miterlimit="10"/>
<path d="M22.9707 25.5327H25.1488" stroke="#941EF3" stroke-width="2.14132" stroke-miterlimit="10"/>
<path d="M25.9707 25.5327H28.1992" stroke="#941EF3" stroke-width="2.14132" stroke-miterlimit="10"/>
<path d="M29.2188 25.5327H31.6458" stroke="#941EF3" stroke-width="2.14132" stroke-miterlimit="10"/>
<path d="M59.6367 48.2185C69.1512 48.2185 76.8642 40.5054 76.8642 30.9909C76.8642 21.4765 69.1512 13.7634 59.6367 13.7634C50.1222 13.7634 42.4092 21.4765 42.4092 30.9909C42.4092 40.5054 50.1222 48.2185 59.6367 48.2185Z" fill="white" stroke="#941EF3" stroke-width="2.14132" stroke-miterlimit="10"/>
<path d="M49.2528 23.2078H69.872C70.1472 23.2078 70.37 23.4305 70.37 23.7057V27.2717H48.7539V23.7057C48.7539 23.4305 48.9767 23.2078 49.2518 23.2078H49.2528Z" fill="#941EF3" stroke="#941EF3" stroke-width="2.14132" stroke-miterlimit="10"/>
<path d="M48.7549 28.321H70.3709V39.0192C70.3709 39.3357 70.1139 39.5937 69.7964 39.5937H49.3294C49.0129 39.5937 48.7549 39.3367 48.7549 39.0192V28.321Z" fill="#941EF3" stroke="#941EF3" stroke-width="2.14132" stroke-miterlimit="10"/>
<path d="M61.448 30.991C61.3058 31.2984 58.6016 33.671 58.6016 33.671L61.2232 36.1627" stroke="white" stroke-width="2.14132" stroke-miterlimit="10"/>
<path d="M65.2256 30.991C65.3677 31.2984 68.072 33.671 68.072 33.671L65.4504 36.1627" stroke="white" stroke-width="2.14132" stroke-miterlimit="10"/>
<path d="M64.7893 29.9216L61.8945 37.4781" stroke="white" stroke-width="2.14132" stroke-miterlimit="10"/>
<path d="M50.4062 30.74H52.0754" stroke="white" stroke-width="2.14132" stroke-miterlimit="10"/>
<path d="M50.4062 32.6602H52.0754" stroke="white" stroke-width="2.14132" stroke-miterlimit="10"/>
<path d="M50.4062 34.5811H52.0754" stroke="white" stroke-width="2.14132" stroke-miterlimit="10"/>
<path d="M50.4062 36.5012H52.0754" stroke="white" stroke-width="2.14132" stroke-miterlimit="10"/>
<path d="M53.0693 30.74H56.3713" stroke="white" stroke-width="2.14132" stroke-miterlimit="10"/>
<path d="M53.0693 32.6602H56.3713" stroke="white" stroke-width="2.14132" stroke-miterlimit="10"/>
<path d="M53.0693 34.5811H56.3713" stroke="white" stroke-width="2.14132" stroke-miterlimit="10"/>
<path d="M53.0693 36.5012H56.3713" stroke="white" stroke-width="2.14132" stroke-miterlimit="10"/>
<path d="M50.6162 25.7195H59.0677" stroke="white" stroke-width="2.14132" stroke-miterlimit="10"/>
<path d="M60.0244 25.7195H62.1915" stroke="white" stroke-width="2.14132" stroke-miterlimit="10"/>
<path d="M63.0078 25.7195H65.2253" stroke="white" stroke-width="2.14132" stroke-miterlimit="10"/>
<path d="M66.2393 25.7195H68.6543" stroke="white" stroke-width="2.14132" stroke-miterlimit="10"/>
</svg>
