<svg width="1439" height="627" viewBox="0 0 1439 627" fill="none" xmlns="http://www.w3.org/2000/svg">
<mask id="path-1-outside-1_351_3641" maskUnits="userSpaceOnUse" x="-3" y="0" width="1442" height="127" fill="black">
<rect fill="white" x="-3" width="1442" height="127"/>
<path d="M-2 1H1438V126H-2V1Z"/>
</mask>
<path d="M-2 1V0.5H-2.5V1H-2ZM1438 1H1438.5V0.5H1438V1ZM1438 126V126.5H1438.5V126H1438ZM-2 126H-2.5V126.5H-2V126ZM-2 1.5H1438V0.5H-2V1.5ZM1437.5 1V126H1438.5V1H1437.5ZM1438 125.5H-2V126.5H1438V125.5ZM-1.5 126V1H-2.5V126H-1.5Z" fill="#F3F3F3" fill-opacity="0.1" mask="url(#path-1-outside-1_351_3641)"/>
<mask id="path-3-inside-2_351_3641" fill="white">
<path d="M24.5 1H149.5V126H24.5V1Z"/>
</mask>
<path d="M149 1V126H150V1H149ZM25 126V1H24V126H25Z" fill="#F3F3F3" fill-opacity="0.1" mask="url(#path-3-inside-2_351_3641)"/>
<mask id="path-5-inside-3_351_3641" fill="white">
<path d="M149.5 1H274.5V126H149.5V1Z"/>
</mask>
<path d="M274 1V126H275V1H274Z" fill="#F3F3F3" fill-opacity="0.1" mask="url(#path-5-inside-3_351_3641)"/>
<mask id="path-7-inside-4_351_3641" fill="white">
<path d="M274.5 1H399.5V126H274.5V1Z"/>
</mask>
<path d="M399 1V126H400V1H399Z" fill="#F3F3F3" fill-opacity="0.1" mask="url(#path-7-inside-4_351_3641)"/>
<mask id="path-9-inside-5_351_3641" fill="white">
<path d="M399.5 1H524.5V126H399.5V1Z"/>
</mask>
<path d="M524 1V126H525V1H524Z" fill="#F3F3F3" fill-opacity="0.1" mask="url(#path-9-inside-5_351_3641)"/>
<mask id="path-11-inside-6_351_3641" fill="white">
<path d="M524.5 1H649.5V126H524.5V1Z"/>
</mask>
<path d="M649 1V126H650V1H649Z" fill="#F3F3F3" fill-opacity="0.1" mask="url(#path-11-inside-6_351_3641)"/>
<mask id="path-13-inside-7_351_3641" fill="white">
<path d="M649.5 1H774.5V126H649.5V1Z"/>
</mask>
<path d="M774 1V126H775V1H774Z" fill="#F3F3F3" fill-opacity="0.1" mask="url(#path-13-inside-7_351_3641)"/>
<mask id="path-15-inside-8_351_3641" fill="white">
<path d="M774.5 1H899.5V126H774.5V1Z"/>
</mask>
<path d="M899 1V126H900V1H899Z" fill="#F3F3F3" fill-opacity="0.1" mask="url(#path-15-inside-8_351_3641)"/>
<mask id="path-17-inside-9_351_3641" fill="white">
<path d="M899.5 1H1024.5V126H899.5V1Z"/>
</mask>
<path d="M1024 1V126H1025V1H1024Z" fill="#F3F3F3" fill-opacity="0.1" mask="url(#path-17-inside-9_351_3641)"/>
<mask id="path-19-inside-10_351_3641" fill="white">
<path d="M1024.5 1H1149.5V126H1024.5V1Z"/>
</mask>
<path d="M1149 1V126H1150V1H1149Z" fill="#F3F3F3" fill-opacity="0.1" mask="url(#path-19-inside-10_351_3641)"/>
<mask id="path-21-inside-11_351_3641" fill="white">
<path d="M1149.5 1H1274.5V126H1149.5V1Z"/>
</mask>
<path d="M1274 1V126H1275V1H1274Z" fill="#F3F3F3" fill-opacity="0.1" mask="url(#path-21-inside-11_351_3641)"/>
<mask id="path-23-inside-12_351_3641" fill="white">
<path d="M1274.5 1H1399.5V126H1274.5V1Z"/>
</mask>
<path d="M1399 1V126H1400V1H1399Z" fill="#F3F3F3" fill-opacity="0.1" mask="url(#path-23-inside-12_351_3641)"/>
<mask id="path-25-outside-13_351_3641" maskUnits="userSpaceOnUse" x="-3" y="125" width="1442" height="127" fill="black">
<rect fill="white" x="-3" y="125" width="1442" height="127"/>
<path d="M-2 126H1438V251H-2V126Z"/>
</mask>
<path d="M-2 126V125.5H-2.5V126H-2ZM1438 126H1438.5V125.5H1438V126ZM1438 251V251.5H1438.5V251H1438ZM-2 251H-2.5V251.5H-2V251ZM-2 126.5H1438V125.5H-2V126.5ZM1437.5 126V251H1438.5V126H1437.5ZM1438 250.5H-2V251.5H1438V250.5ZM-1.5 251V126H-2.5V251H-1.5Z" fill="#F3F3F3" fill-opacity="0.1" mask="url(#path-25-outside-13_351_3641)"/>
<mask id="path-27-inside-14_351_3641" fill="white">
<path d="M24.5 126H149.5V251H24.5V126Z"/>
</mask>
<path d="M149 126V251H150V126H149ZM25 251V126H24V251H25Z" fill="#F3F3F3" fill-opacity="0.1" mask="url(#path-27-inside-14_351_3641)"/>
<mask id="path-29-inside-15_351_3641" fill="white">
<path d="M149.5 126H274.5V251H149.5V126Z"/>
</mask>
<path d="M274 126V251H275V126H274Z" fill="#F3F3F3" fill-opacity="0.1" mask="url(#path-29-inside-15_351_3641)"/>
<mask id="path-31-inside-16_351_3641" fill="white">
<path d="M274.5 126H399.5V251H274.5V126Z"/>
</mask>
<path d="M399 126V251H400V126H399Z" fill="#F3F3F3" fill-opacity="0.1" mask="url(#path-31-inside-16_351_3641)"/>
<mask id="path-33-inside-17_351_3641" fill="white">
<path d="M399.5 126H524.5V251H399.5V126Z"/>
</mask>
<path d="M524 126V251H525V126H524Z" fill="#F3F3F3" fill-opacity="0.1" mask="url(#path-33-inside-17_351_3641)"/>
<mask id="path-35-inside-18_351_3641" fill="white">
<path d="M524.5 126H649.5V251H524.5V126Z"/>
</mask>
<path d="M649 126V251H650V126H649Z" fill="#F3F3F3" fill-opacity="0.1" mask="url(#path-35-inside-18_351_3641)"/>
<mask id="path-37-inside-19_351_3641" fill="white">
<path d="M649.5 126H774.5V251H649.5V126Z"/>
</mask>
<path d="M774 126V251H775V126H774Z" fill="#F3F3F3" fill-opacity="0.1" mask="url(#path-37-inside-19_351_3641)"/>
<mask id="path-39-inside-20_351_3641" fill="white">
<path d="M774.5 126H899.5V251H774.5V126Z"/>
</mask>
<path d="M899 126V251H900V126H899Z" fill="#F3F3F3" fill-opacity="0.1" mask="url(#path-39-inside-20_351_3641)"/>
<mask id="path-41-inside-21_351_3641" fill="white">
<path d="M899.5 126H1024.5V251H899.5V126Z"/>
</mask>
<path d="M1024 126V251H1025V126H1024Z" fill="#F3F3F3" fill-opacity="0.1" mask="url(#path-41-inside-21_351_3641)"/>
<mask id="path-43-inside-22_351_3641" fill="white">
<path d="M1024.5 126H1149.5V251H1024.5V126Z"/>
</mask>
<path d="M1149 126V251H1150V126H1149Z" fill="#F3F3F3" fill-opacity="0.1" mask="url(#path-43-inside-22_351_3641)"/>
<mask id="path-45-inside-23_351_3641" fill="white">
<path d="M1149.5 126H1274.5V251H1149.5V126Z"/>
</mask>
<path d="M1149.5 126H1274.5V251H1149.5V126Z" fill="#6502B4" fill-opacity="0.15"/>
<path d="M1274 126V251H1275V126H1274Z" fill="#F3F3F3" fill-opacity="0.1" mask="url(#path-45-inside-23_351_3641)"/>
<mask id="path-47-inside-24_351_3641" fill="white">
<path d="M1274.5 126H1399.5V251H1274.5V126Z"/>
</mask>
<path d="M1399 126V251H1400V126H1399Z" fill="#F3F3F3" fill-opacity="0.1" mask="url(#path-47-inside-24_351_3641)"/>
<mask id="path-49-outside-25_351_3641" maskUnits="userSpaceOnUse" x="-3" y="250" width="1442" height="127" fill="black">
<rect fill="white" x="-3" y="250" width="1442" height="127"/>
<path d="M-2 251H1438V376H-2V251Z"/>
</mask>
<path d="M-2 251V250.5H-2.5V251H-2ZM1438 251H1438.5V250.5H1438V251ZM1438 376V376.5H1438.5V376H1438ZM-2 376H-2.5V376.5H-2V376ZM-2 251.5H1438V250.5H-2V251.5ZM1437.5 251V376H1438.5V251H1437.5ZM1438 375.5H-2V376.5H1438V375.5ZM-1.5 376V251H-2.5V376H-1.5Z" fill="#F3F3F3" fill-opacity="0.1" mask="url(#path-49-outside-25_351_3641)"/>
<mask id="path-51-inside-26_351_3641" fill="white">
<path d="M24.5 251H149.5V376H24.5V251Z"/>
</mask>
<path d="M24.5 251H149.5V376H24.5V251Z" fill="#6502B4" fill-opacity="0.15"/>
<path d="M149 251V376H150V251H149ZM25 376V251H24V376H25Z" fill="#F3F3F3" fill-opacity="0.1" mask="url(#path-51-inside-26_351_3641)"/>
<mask id="path-53-inside-27_351_3641" fill="white">
<path d="M149.5 251H274.5V376H149.5V251Z"/>
</mask>
<path d="M274 251V376H275V251H274Z" fill="#F3F3F3" fill-opacity="0.1" mask="url(#path-53-inside-27_351_3641)"/>
<mask id="path-55-inside-28_351_3641" fill="white">
<path d="M274.5 251H399.5V376H274.5V251Z"/>
</mask>
<path d="M399 251V376H400V251H399Z" fill="#F3F3F3" fill-opacity="0.1" mask="url(#path-55-inside-28_351_3641)"/>
<mask id="path-57-inside-29_351_3641" fill="white">
<path d="M399.5 251H524.5V376H399.5V251Z"/>
</mask>
<path d="M524 251V376H525V251H524Z" fill="#F3F3F3" fill-opacity="0.1" mask="url(#path-57-inside-29_351_3641)"/>
<mask id="path-59-inside-30_351_3641" fill="white">
<path d="M524.5 251H649.5V376H524.5V251Z"/>
</mask>
<path d="M649 251V376H650V251H649Z" fill="#F3F3F3" fill-opacity="0.1" mask="url(#path-59-inside-30_351_3641)"/>
<mask id="path-61-inside-31_351_3641" fill="white">
<path d="M649.5 251H774.5V376H649.5V251Z"/>
</mask>
<path d="M774 251V376H775V251H774Z" fill="#F3F3F3" fill-opacity="0.1" mask="url(#path-61-inside-31_351_3641)"/>
<mask id="path-63-inside-32_351_3641" fill="white">
<path d="M774.5 251H899.5V376H774.5V251Z"/>
</mask>
<path d="M899 251V376H900V251H899Z" fill="#F3F3F3" fill-opacity="0.1" mask="url(#path-63-inside-32_351_3641)"/>
<mask id="path-65-inside-33_351_3641" fill="white">
<path d="M899.5 251H1024.5V376H899.5V251Z"/>
</mask>
<path d="M1024 251V376H1025V251H1024Z" fill="#F3F3F3" fill-opacity="0.1" mask="url(#path-65-inside-33_351_3641)"/>
<mask id="path-67-inside-34_351_3641" fill="white">
<path d="M1024.5 251H1149.5V376H1024.5V251Z"/>
</mask>
<path d="M1149 251V376H1150V251H1149Z" fill="#F3F3F3" fill-opacity="0.1" mask="url(#path-67-inside-34_351_3641)"/>
<mask id="path-69-inside-35_351_3641" fill="white">
<path d="M1149.5 251H1274.5V376H1149.5V251Z"/>
</mask>
<path d="M1274 251V376H1275V251H1274Z" fill="#F3F3F3" fill-opacity="0.1" mask="url(#path-69-inside-35_351_3641)"/>
<mask id="path-71-inside-36_351_3641" fill="white">
<path d="M1274.5 251H1399.5V376H1274.5V251Z"/>
</mask>
<path d="M1399 251V376H1400V251H1399Z" fill="#F3F3F3" fill-opacity="0.1" mask="url(#path-71-inside-36_351_3641)"/>
<mask id="path-73-outside-37_351_3641" maskUnits="userSpaceOnUse" x="-3" y="375" width="1442" height="127" fill="black">
<rect fill="white" x="-3" y="375" width="1442" height="127"/>
<path d="M-2 376H1438V501H-2V376Z"/>
</mask>
<path d="M-2 376V375.5H-2.5V376H-2ZM1438 376H1438.5V375.5H1438V376ZM1438 501V501.5H1438.5V501H1438ZM-2 501H-2.5V501.5H-2V501ZM-2 376.5H1438V375.5H-2V376.5ZM1437.5 376V501H1438.5V376H1437.5ZM1438 500.5H-2V501.5H1438V500.5ZM-1.5 501V376H-2.5V501H-1.5Z" fill="#F3F3F3" fill-opacity="0.1" mask="url(#path-73-outside-37_351_3641)"/>
<mask id="path-75-inside-38_351_3641" fill="white">
<path d="M24.5 376H149.5V501H24.5V376Z"/>
</mask>
<path d="M149 376V501H150V376H149ZM25 501V376H24V501H25Z" fill="#F3F3F3" fill-opacity="0.1" mask="url(#path-75-inside-38_351_3641)"/>
<mask id="path-77-inside-39_351_3641" fill="white">
<path d="M149.5 376H274.5V501H149.5V376Z"/>
</mask>
<path d="M274 376V501H275V376H274Z" fill="#F3F3F3" fill-opacity="0.1" mask="url(#path-77-inside-39_351_3641)"/>
<mask id="path-79-inside-40_351_3641" fill="white">
<path d="M274.5 376H399.5V501H274.5V376Z"/>
</mask>
<path d="M399 376V501H400V376H399Z" fill="#F3F3F3" fill-opacity="0.1" mask="url(#path-79-inside-40_351_3641)"/>
<mask id="path-81-inside-41_351_3641" fill="white">
<path d="M399.5 376H524.5V501H399.5V376Z"/>
</mask>
<path d="M524 376V501H525V376H524Z" fill="#F3F3F3" fill-opacity="0.1" mask="url(#path-81-inside-41_351_3641)"/>
<mask id="path-83-inside-42_351_3641" fill="white">
<path d="M524.5 376H649.5V501H524.5V376Z"/>
</mask>
<path d="M649 376V501H650V376H649Z" fill="#F3F3F3" fill-opacity="0.1" mask="url(#path-83-inside-42_351_3641)"/>
<mask id="path-85-inside-43_351_3641" fill="white">
<path d="M649.5 376H774.5V501H649.5V376Z"/>
</mask>
<path d="M774 376V501H775V376H774Z" fill="#F3F3F3" fill-opacity="0.1" mask="url(#path-85-inside-43_351_3641)"/>
<mask id="path-87-inside-44_351_3641" fill="white">
<path d="M774.5 376H899.5V501H774.5V376Z"/>
</mask>
<path d="M899 376V501H900V376H899Z" fill="#F3F3F3" fill-opacity="0.1" mask="url(#path-87-inside-44_351_3641)"/>
<mask id="path-89-inside-45_351_3641" fill="white">
<path d="M899.5 376H1024.5V501H899.5V376Z"/>
</mask>
<path d="M1024 376V501H1025V376H1024Z" fill="#F3F3F3" fill-opacity="0.1" mask="url(#path-89-inside-45_351_3641)"/>
<mask id="path-91-inside-46_351_3641" fill="white">
<path d="M1024.5 376H1149.5V501H1024.5V376Z"/>
</mask>
<path d="M1149 376V501H1150V376H1149Z" fill="#F3F3F3" fill-opacity="0.1" mask="url(#path-91-inside-46_351_3641)"/>
<mask id="path-93-inside-47_351_3641" fill="white">
<path d="M1149.5 376H1274.5V501H1149.5V376Z"/>
</mask>
<path d="M1274 376V501H1275V376H1274Z" fill="#F3F3F3" fill-opacity="0.1" mask="url(#path-93-inside-47_351_3641)"/>
<mask id="path-95-inside-48_351_3641" fill="white">
<path d="M1274.5 376H1399.5V501H1274.5V376Z"/>
</mask>
<path d="M1274.5 376H1399.5V501H1274.5V376Z" fill="#6502B4" fill-opacity="0.15"/>
<path d="M1399 376V501H1400V376H1399Z" fill="#F3F3F3" fill-opacity="0.1" mask="url(#path-95-inside-48_351_3641)"/>
<mask id="path-97-outside-49_351_3641" maskUnits="userSpaceOnUse" x="-3" y="500" width="1442" height="127" fill="black">
<rect fill="white" x="-3" y="500" width="1442" height="127"/>
<path d="M-2 501H1438V626H-2V501Z"/>
</mask>
<path d="M-2 501V500.5H-2.5V501H-2ZM1438 501H1438.5V500.5H1438V501ZM1438 626V626.5H1438.5V626H1438ZM-2 626H-2.5V626.5H-2V626ZM-2 501.5H1438V500.5H-2V501.5ZM1437.5 501V626H1438.5V501H1437.5ZM1438 625.5H-2V626.5H1438V625.5ZM-1.5 626V501H-2.5V626H-1.5Z" fill="#F3F3F3" fill-opacity="0.1" mask="url(#path-97-outside-49_351_3641)"/>
<mask id="path-99-inside-50_351_3641" fill="white">
<path d="M24.5 501H149.5V626H24.5V501Z"/>
</mask>
<path d="M149 501V626H150V501H149ZM25 626V501H24V626H25Z" fill="#F3F3F3" fill-opacity="0.1" mask="url(#path-99-inside-50_351_3641)"/>
<mask id="path-101-inside-51_351_3641" fill="white">
<path d="M149.5 501H274.5V626H149.5V501Z"/>
</mask>
<path d="M274 501V626H275V501H274Z" fill="#F3F3F3" fill-opacity="0.1" mask="url(#path-101-inside-51_351_3641)"/>
<mask id="path-103-inside-52_351_3641" fill="white">
<path d="M274.5 501H399.5V626H274.5V501Z"/>
</mask>
<path d="M274.5 501H399.5V626H274.5V501Z" fill="#6502B4" fill-opacity="0.15"/>
<path d="M399 501V626H400V501H399Z" fill="#F3F3F3" fill-opacity="0.1" mask="url(#path-103-inside-52_351_3641)"/>
<mask id="path-105-inside-53_351_3641" fill="white">
<path d="M399.5 501H524.5V626H399.5V501Z"/>
</mask>
<path d="M524 501V626H525V501H524Z" fill="#F3F3F3" fill-opacity="0.1" mask="url(#path-105-inside-53_351_3641)"/>
<mask id="path-107-inside-54_351_3641" fill="white">
<path d="M524.5 501H649.5V626H524.5V501Z"/>
</mask>
<path d="M649 501V626H650V501H649Z" fill="#F3F3F3" fill-opacity="0.1" mask="url(#path-107-inside-54_351_3641)"/>
<mask id="path-109-inside-55_351_3641" fill="white">
<path d="M649.5 501H774.5V626H649.5V501Z"/>
</mask>
<path d="M774 501V626H775V501H774Z" fill="#F3F3F3" fill-opacity="0.1" mask="url(#path-109-inside-55_351_3641)"/>
<mask id="path-111-inside-56_351_3641" fill="white">
<path d="M774.5 501H899.5V626H774.5V501Z"/>
</mask>
<path d="M899 501V626H900V501H899Z" fill="#F3F3F3" fill-opacity="0.1" mask="url(#path-111-inside-56_351_3641)"/>
<mask id="path-113-inside-57_351_3641" fill="white">
<path d="M899.5 501H1024.5V626H899.5V501Z"/>
</mask>
<path d="M1024 501V626H1025V501H1024Z" fill="#F3F3F3" fill-opacity="0.1" mask="url(#path-113-inside-57_351_3641)"/>
<mask id="path-115-inside-58_351_3641" fill="white">
<path d="M1024.5 501H1149.5V626H1024.5V501Z"/>
</mask>
<path d="M1149 501V626H1150V501H1149Z" fill="#F3F3F3" fill-opacity="0.1" mask="url(#path-115-inside-58_351_3641)"/>
<mask id="path-117-inside-59_351_3641" fill="white">
<path d="M1149.5 501H1274.5V626H1149.5V501Z"/>
</mask>
<path d="M1274 501V626H1275V501H1274Z" fill="#F3F3F3" fill-opacity="0.1" mask="url(#path-117-inside-59_351_3641)"/>
<mask id="path-119-inside-60_351_3641" fill="white">
<path d="M1274.5 501H1399.5V626H1274.5V501Z"/>
</mask>
<path d="M1399 501V626H1400V501H1399Z" fill="#F3F3F3" fill-opacity="0.1" mask="url(#path-119-inside-60_351_3641)"/>
</svg>
