<svg width="153" height="39" viewBox="0 0 153 39" fill="none" xmlns="http://www.w3.org/2000/svg">
<path d="M15.9236 1.08154L1 6.87829L5.03191 28.0104L15.9236 37.9184L26.7968 27.8524L30.9073 6.98363L15.9236 1.08154Z" stroke="white" stroke-width="1.0546" stroke-miterlimit="10"/>
<path d="M15.929 23.946H18.1159C18.1159 23.946 18.1159 13.4586 18.1159 12.328C18.1159 11.1974 19.0358 11.4081 19.0358 11.4081H24.6026V6.98451H18.5136C18.5136 6.98451 17.9171 6.95929 17.9171 7.59356C17.9171 8.2271 17.9171 10.7501 17.9171 10.7501C17.9171 10.7501 17.8051 11.3221 17.2955 11.3221C16.7858 11.3221 15.9283 11.3221 15.9283 11.3221C15.9283 11.3221 15.0707 11.3221 14.561 11.3221C14.0514 11.3221 13.9394 10.7501 13.9394 10.7501V7.59356C13.9394 6.96003 13.3429 6.98451 13.3429 6.98451H7.25391V11.4081H12.8207C12.8207 11.4081 13.7406 11.1967 13.7406 12.328V23.946H15.9275H15.929Z" fill="white" stroke="white" stroke-width="0.0741841" stroke-miterlimit="10"/>
<path d="M16.0241 26.6318H20.4254L18.4803 22.6467L23.4143 13.5376H28.8231L18.4328 31.3292H15.8713H13.4618L3.07227 13.5376H8.48029L13.415 22.6467L11.4692 26.6318H16.0241Z" fill="white" stroke="white" stroke-width="0.0741841" stroke-miterlimit="10"/>
<path d="M45.6097 26.1333L38.7103 14.2207H41.0267L46.5362 23.8004L52.0623 14.2207H54.3621L47.4628 26.1333H45.6097ZM55.6846 26.1333V14.2207H66.621V16.2227H57.6866V19.1843H64.8837V21.1697H57.6866V24.1313H66.621V26.1333H55.6846ZM70.1317 26.1333C69.7236 26.1333 69.3485 26.034 69.0066 25.8355C68.6647 25.6369 68.3944 25.3667 68.1959 25.0248C67.9973 24.6828 67.8981 24.3078 67.8981 23.8997V16.4543C67.8981 16.0462 67.9973 15.6712 68.1959 15.3293C68.3944 14.9873 68.6647 14.7171 69.0066 14.5185C69.3485 14.32 69.7236 14.2207 70.1317 14.2207H77.577C77.9851 14.2207 78.3547 14.32 78.6856 14.5185C79.0275 14.7171 79.2977 14.9873 79.4963 15.3293C79.7059 15.6712 79.8106 16.0462 79.8106 16.4543V23.8997C79.8106 24.3078 79.7059 24.6828 79.4963 25.0248C79.2977 25.3667 79.0275 25.6369 78.6856 25.8355C78.3547 26.034 77.9851 26.1333 77.577 26.1333H70.1317ZM70.1813 24.1313H77.5109C77.5881 24.1313 77.6542 24.1038 77.7094 24.0486C77.7756 23.9934 77.8087 23.9218 77.8087 23.8335V16.5205C77.8087 16.4323 77.7756 16.3606 77.7094 16.3054C77.6542 16.2503 77.5881 16.2227 77.5109 16.2227H70.1813C70.1041 16.2227 70.0324 16.2503 69.9662 16.3054C69.9111 16.3606 69.8835 16.4323 69.8835 16.5205V23.8335C69.8835 23.9218 69.9111 23.9934 69.9662 24.0486C70.0324 24.1038 70.1041 24.1313 70.1813 24.1313ZM83.8663 26.1333C83.4582 26.1333 83.0831 26.034 82.7412 25.8355C82.3993 25.6369 82.129 25.3667 81.9305 25.0248C81.732 24.6828 81.6327 24.3078 81.6327 23.8997V16.4543C81.6327 16.0462 81.732 15.6712 81.9305 15.3293C82.129 14.9873 82.3993 14.7171 82.7412 14.5185C83.0831 14.32 83.4582 14.2207 83.8663 14.2207H93.5122V16.2227H84.2137C84.0373 16.2227 83.8939 16.2779 83.7836 16.3882C83.6733 16.4874 83.6181 16.6253 83.6181 16.8018V23.5522C83.6181 23.7287 83.6733 23.8721 83.7836 23.9824C83.8939 24.0817 84.0373 24.1313 84.2137 24.1313H93.5122V26.1333H83.8663ZM104.533 26.1333V16.2227H99.5697V14.2207H111.482V16.2227H106.519V26.1333H104.533ZM112.753 26.1333V14.2207H123.689V16.2227H114.755V19.1843H121.952V21.1697H114.755V24.1313H123.689V26.1333H112.753ZM127.621 26.1333C127.213 26.1333 126.838 26.034 126.496 25.8355C126.154 25.6369 125.883 25.3667 125.685 25.0248C125.486 24.6828 125.387 24.3078 125.387 23.8997V16.4543C125.387 16.0462 125.486 15.6712 125.685 15.3293C125.883 14.9873 126.154 14.7171 126.496 14.5185C126.838 14.32 127.213 14.2207 127.621 14.2207H137.267V16.2227H127.968C127.792 16.2227 127.648 16.2779 127.538 16.3882C127.428 16.4874 127.373 16.6253 127.373 16.8018V23.5522C127.373 23.7287 127.428 23.8721 127.538 23.9824C127.648 24.0817 127.792 24.1313 127.968 24.1313H137.267V26.1333H127.621ZM139.008 26.1333V14.2207H140.994V19.1843H149.2V14.2207H151.186V26.1333H149.2V21.1697H140.994V26.1333H139.008Z" fill="white"/>
</svg>
