<svg width="86" height="60" viewBox="0 0 86 60" fill="none" xmlns="http://www.w3.org/2000/svg">
<path d="M37.1267 25.2727C37.1267 25.2727 36.8153 23.5784 33.7441 23.3708C30.674 23.1621 23.4935 19.2544 28.9514 11.2484C34.1523 3.61837 52.3807 7.05641 54.4409 9.64377C54.4409 9.64377 40.0074 20.6876 37.1267 25.2727Z" fill="#941EF3" stroke="#941EF3" stroke-width="0.133832" stroke-miterlimit="10"/>
<path d="M28.1329 41.7827C28.1329 41.7827 25.0093 39.7094 22.7878 44.8125C20.9988 48.683 19.7368 48.8231 17.8701 49.1628C17.8701 49.1628 17.7996 51.0093 24.4731 50.6666C31.1466 50.3239 30.7001 44.9275 29.8292 43.0164C30.059 42.9449 58.3728 15.9031 62.0104 6.52637C62.0104 6.52637 37.0813 26.2546 28.1329 41.7827Z" fill="#941EF3" stroke="#941EF3" stroke-width="0.133832" stroke-miterlimit="10"/>
<path d="M33.8555 43.4398C33.8555 43.4398 57.1114 21.5819 59.5849 13.2795C59.5849 13.2795 73.6233 26.8432 65.7111 44.0315C58.5971 59.486 35.0771 53.5453 33.8555 43.4398Z" fill="#941EF3" stroke="#941EF3" stroke-width="0.133832" stroke-miterlimit="10"/>
<path d="M36.7268 20.485C39.2434 20.485 41.2836 18.4449 41.2836 15.9282C41.2836 13.4115 39.2434 11.3713 36.7268 11.3713C34.2101 11.3713 32.1699 13.4115 32.1699 15.9282C32.1699 18.4449 34.2101 20.485 36.7268 20.485Z" fill="white" stroke="#941EF3" stroke-width="0.133832" stroke-miterlimit="10"/>
<path d="M60.9214 31.7751C62.6281 31.7751 64.0117 30.3915 64.0117 28.6848C64.0117 26.9781 62.6281 25.5945 60.9214 25.5945C59.2146 25.5945 57.8311 26.9781 57.8311 28.6848C57.8311 30.3915 59.2146 31.7751 60.9214 31.7751Z" fill="white" stroke="#941EF3" stroke-width="0.133832" stroke-miterlimit="10"/>
<path d="M58.9204 41.2404C60.6271 41.2404 62.0107 39.8569 62.0107 38.1501C62.0107 36.4434 60.6271 35.0598 58.9204 35.0598C57.2137 35.0598 55.8301 36.4434 55.8301 38.1501C55.8301 39.8569 57.2137 41.2404 58.9204 41.2404Z" fill="white" stroke="#941EF3" stroke-width="0.133832" stroke-miterlimit="10"/>
<path d="M52.3188 47.5964C54.0256 47.5964 55.4091 46.2128 55.4091 44.5061C55.4091 42.7994 54.0256 41.4158 52.3188 41.4158C50.6121 41.4158 49.2285 42.7994 49.2285 44.5061C49.2285 46.2128 50.6121 47.5964 52.3188 47.5964Z" fill="white" stroke="#941EF3" stroke-width="0.133832" stroke-miterlimit="10"/>
<path d="M43.1186 47.5964C44.8254 47.5964 46.2089 46.2128 46.2089 44.5061C46.2089 42.7994 44.8254 41.4158 43.1186 41.4158C41.4119 41.4158 40.0283 42.7994 40.0283 44.5061C40.0283 46.2128 41.4119 47.5964 43.1186 47.5964Z" fill="white" stroke="#941EF3" stroke-width="0.133832" stroke-miterlimit="10"/>
</svg>
