<svg width="40" height="38" viewBox="0 0 40 38" fill="none" xmlns="http://www.w3.org/2000/svg">
<path fill-rule="evenodd" clip-rule="evenodd" d="M25.7953 33.8311C26.8992 33.4115 28.6219 32.4897 29.8686 31.6517C31.3601 30.6491 33.4093 28.737 34.4298 27.3955C36.2628 24.9862 37.2217 22.5356 37.7727 18.852C38.1433 16.3751 38.1697 15.7462 38.2039 8.55668C38.2402 0.91045 38.2734 1.39039 37.6675 0.784584C37.0829 0.199905 37.4287 0.226185 30.3079 0.226184C23.4304 0.226184 23.6711 0.212149 23.1029 0.645583C22.9578 0.756217 22.7484 1.00108 22.6375 1.18965L22.5729 1.29946C22.4832 1.45215 22.4356 1.62593 22.4351 1.80304L22.4157 8.04718L22.396 14.3541C22.3956 14.4911 22.4233 14.6267 22.4774 14.7525L22.5567 14.9367C22.7461 15.377 23.2659 15.8676 23.6585 15.9766C23.8195 16.0213 25.1607 16.0519 26.9711 16.0521L29.5438 16.0525C29.803 16.0525 30.0132 16.2627 30.0132 16.522C30.0132 17.5908 29.7084 19.4046 29.327 20.6064C28.8199 22.2041 28.0461 23.4923 26.9252 24.6049C26.0108 25.5126 24.9519 26.2334 23.4634 26.9617C22.375 27.4942 22.2117 27.6264 21.9127 28.2169C21.8335 28.3733 21.7807 28.6521 21.7781 28.9276C21.7743 29.3265 21.8241 29.4885 22.1917 30.2754C23.5909 33.2698 23.7053 33.4598 24.2898 33.758C24.7184 33.9766 25.3338 34.0065 25.7953 33.8311ZM3.71957 33.8858C4.1333 33.8095 6.07867 32.8575 7.1321 32.2159C10.328 30.2695 12.8227 27.6618 14.2825 24.7416C15.35 22.6063 15.8787 20.4493 16.2511 16.7103C16.3501 15.7166 16.3784 14.231 16.4052 8.63193C16.4421 0.901789 16.4756 1.39129 15.8689 0.784582C15.2843 0.199976 15.6297 0.226183 8.51318 0.226182C1.57667 0.226182 1.81981 0.211098 1.25573 0.676037C1.10777 0.79802 0.899714 1.07244 0.793334 1.28587L0.704997 1.46316C0.635932 1.60177 0.600005 1.75453 0.600043 1.90939L0.601622 8.13534C0.603266 14.4744 0.60618 14.6032 0.755335 14.9328C0.930097 15.319 1.19668 15.6197 1.57047 15.8525C1.8257 16.0115 1.90588 16.0161 5.04078 16.0526L7.65219 16.0829C7.97965 16.0868 8.23951 16.3599 8.22703 16.6871C8.16813 18.2297 7.79576 20.0655 7.27857 21.3623C6.74682 22.6958 6.10996 23.6684 5.1435 24.6231C4.26394 25.4919 3.36594 26.111 1.95635 26.8202C0.605057 27.5 0.227387 27.8134 0.0744214 28.3813C-0.106613 29.0536 -0.0112758 29.3923 0.879708 31.2444C1.37697 32.278 1.81824 33.0919 1.98845 33.2893C2.42083 33.7907 3.05359 34.0088 3.71957 33.8858Z" fill="#750BD2"/>
</svg>
