<svg width="57" height="40" viewBox="0 0 57 40" fill="none" xmlns="http://www.w3.org/2000/svg">
<path d="M15.9951 4.35147V15.26C15.9951 16.0797 16.6597 16.745 17.4801 16.745H20.5059L20.9024 21.2202L25.6202 16.6052H30.8943L35.4307 20.7673L35.7653 16.6294L39.0653 16.6375C39.8864 16.6395 40.5536 15.9742 40.5536 15.1524V4.35147C40.5536 3.53169 39.8891 2.86646 39.0686 2.86646H17.4801C16.6603 2.86646 15.9951 3.53102 15.9951 4.35147Z" fill="white" stroke="#941EF3" stroke-width="2.14132" stroke-miterlimit="10" stroke-linecap="round"/>
<path d="M18.5423 29.4704C20.5526 29.4704 22.1823 27.8407 22.1823 25.8304C22.1823 23.8201 20.5526 22.1904 18.5423 22.1904C16.532 22.1904 14.9023 23.8201 14.9023 25.8304C14.9023 27.8407 16.532 29.4704 18.5423 29.4704Z" fill="#941EF3" stroke="#941EF3" stroke-width="0.535329" stroke-miterlimit="10" stroke-linecap="round"/>
<path d="M18.3056 37.1325L11.748 37.1104C11.7601 33.5215 14.7167 30.575 18.3056 30.575C21.8945 30.575 24.8632 33.5349 24.8632 37.1325H18.3056Z" fill="#941EF3" stroke="#941EF3" stroke-width="0.535329" stroke-miterlimit="10" stroke-linecap="round"/>
<path d="M38.3441 29.4704C40.3544 29.4704 41.984 27.8407 41.984 25.8304C41.984 23.8201 40.3544 22.1904 38.3441 22.1904C36.3338 22.1904 34.7041 23.8201 34.7041 25.8304C34.7041 27.8407 36.3338 29.4704 38.3441 29.4704Z" fill="#941EF3" stroke="#941EF3" stroke-width="0.535329" stroke-miterlimit="10" stroke-linecap="round"/>
<path d="M38.3457 37.1325L31.7881 37.1104C31.8002 33.5215 34.7568 30.575 38.3457 30.575C41.9346 30.575 44.9033 33.5349 44.9033 37.1325H38.3457Z" fill="#941EF3" stroke="#941EF3" stroke-width="0.535329" stroke-miterlimit="10" stroke-linecap="round"/>
<path d="M28.2751 14.553C30.7359 14.553 32.7308 12.5581 32.7308 10.0973C32.7308 7.63649 30.7359 5.6416 28.2751 5.6416C25.8142 5.6416 23.8193 7.63649 23.8193 10.0973C23.8193 12.5581 25.8142 14.553 28.2751 14.553Z" fill="#941EF3" stroke="#941EF3" stroke-width="0.535329" stroke-miterlimit="10" stroke-linecap="round"/>
<path d="M25.8818 9.8347L27.6155 11.5683C27.6665 11.6194 27.7499 11.6194 27.8009 11.5683L30.8153 8.55396" stroke="white" stroke-width="2.14132" stroke-miterlimit="10" stroke-linecap="round"/>
</svg>
