<svg width="41" height="40" viewBox="0 0 41 40" fill="none" xmlns="http://www.w3.org/2000/svg">
<path d="M11.6485 1.41153L12.3077 2.91052C13.6639 5.99099 14.4842 9.15778 14.8516 12.31C10.9446 12.6247 7.0607 12.6342 3.54789 12.4393L1.89258 12.3464L2.94242 13.6283C6.2418 17.6596 10.2559 20.0735 14.5391 22.2929C13.5909 27.7354 11.4355 32.7695 8.50148 36.7704L7.51273 38.118L9.17289 37.9276C16.9662 37.0325 23.0713 33.9318 27.6641 29.6414C30.247 31.4783 32.8198 33.7047 35.3277 36.5922L36.507 37.9495L36.607 36.155C36.8849 31.1704 35.9327 26.1464 33.9777 21.5042C36.9277 16.2193 38.5077 10.3148 38.9435 4.73419L39.0998 2.7395L37.6959 4.16294C34.9109 6.9895 30.9505 8.95075 26.4874 10.2664C22.8206 6.53669 18.3126 3.60075 13.2038 1.92169L11.6486 1.41138L11.6485 1.41153ZM18.1134 6.51403C18.9235 6.51544 19.9561 6.8956 21.1846 7.6445C22.476 8.57887 23.6983 9.60524 24.8419 10.7156C22.1024 11.4106 19.2148 11.8783 16.3116 12.1708C16.2301 11.4745 16.1275 10.7808 16.0039 10.0908C16.0037 10.0892 16.0042 10.0875 16.0039 10.0859C15.937 7.68903 16.6809 6.51169 18.1133 6.51403H18.1134ZM32.4151 10.1615C34.8104 10.116 36.086 11.5527 35.4522 14.5633C34.8444 16.36 34.1022 18.128 33.2183 19.8344C31.7556 16.8081 29.8771 14.001 27.6373 11.4946C28.6388 11.1774 29.6155 10.8239 30.5621 10.4349C31.2344 10.2633 31.8553 10.1722 32.4152 10.1615L32.4151 10.1615ZM26.0625 11.9559C28.6662 14.7551 30.7897 17.9861 32.3345 21.4458C31.6289 22.6493 30.8496 23.8143 29.9908 24.9272C29.4238 25.6616 28.8184 26.371 28.1816 27.0561C26.5327 26.5794 24.8073 25.8852 23.4306 25.2593C23.4248 25.2566 23.4194 25.2546 23.4134 25.2519C21.8625 24.3804 20.3306 23.5922 18.8334 22.8372C17.9213 22.3774 17.0491 21.9315 16.1674 21.4823C16.5077 19.1301 16.626 16.7136 16.4898 14.2727C18.5023 13.7141 20.741 13.2352 22.608 12.7688C23.7777 12.5352 24.9322 12.2665 26.0624 11.9558L26.0625 11.9559ZM22.9498 14.5072C22.8836 14.507 22.8185 14.5087 22.7545 14.5122C22.2423 14.5405 21.7995 14.6856 21.4409 14.9125C20.724 15.3665 20.257 16.1725 20.257 17.4175C20.257 19.9073 22.4566 22.9487 25.0226 23.8872C26.3055 24.3565 27.3524 24.2336 28.0695 23.7797C28.7865 23.3258 29.2535 22.5198 29.2535 21.2748C29.2535 18.785 27.0563 15.7461 24.4905 14.8076C23.9291 14.6022 23.4131 14.5086 22.9498 14.5072H22.9498ZM15.042 14.705C15.1334 16.7558 15.037 18.7871 14.7784 20.7743C14.1311 20.4347 13.4929 20.0921 12.8666 19.7391C9.28523 17.3846 11.4549 15.8657 15.042 14.705L15.042 14.705ZM15.9087 22.9886C16.6636 23.3707 17.4076 23.7543 18.1744 24.141C20.8825 25.5066 23.6584 26.9554 26.4311 28.7992C25.9031 29.2821 25.3574 29.7454 24.7954 30.1883C19.5948 32.725 15.7698 30.4047 15.5571 24.6586C15.6869 24.1046 15.8042 23.5479 15.9087 22.9886ZM33.0278 23.1082C33.3265 23.8865 33.5961 24.6756 33.8359 25.474C34.0753 27.614 32.1975 27.9135 29.793 27.4515C30.2624 26.9236 30.7135 26.3797 31.1455 25.8207C31.8212 24.9451 32.4445 24.0363 33.0278 23.1082Z" fill="#941EF3"/>
</svg>
