<svg width="57" height="40" viewBox="0 0 57 40" fill="none" xmlns="http://www.w3.org/2000/svg">
<path d="M34.4102 10.8763C34.4102 10.8763 34.3611 9.84215 33.5789 8.80465C32.6476 7.56961 31.086 6.98702 29.5546 7.20608C27.6248 7.48225 23.8397 7.73087 22.3681 5.76608C21.9273 5.17745 21.1821 4.90397 20.4779 5.11496C19.7515 5.33268 18.9075 5.75668 18.3397 6.58452C17.1524 8.31547 14.7004 9.41076 12.5005 8.6071C12.5005 8.6071 12.7094 10.2332 13.9277 11.475C14.3322 11.8869 14.9349 12.0415 15.4853 11.8674C16.3319 11.6006 17.694 11.3036 18.3827 11.8681C19.4263 12.7235 19.4505 14.32 20.9079 14.736C22.3654 15.1519 24.2126 13.9182 24.2126 13.9182C24.2126 13.9182 23.2692 17.2464 19.3598 17.7047C16.7176 17.616 14.9773 17.1093 12.5011 18.5795C10.3825 20.0505 10.4913 20.6559 10.4913 20.6559C10.4913 20.6559 16.2728 19.7891 17.4259 21.1128C18.5789 22.4366 19.2375 23.2913 20.7225 23.763C22.2075 24.2347 22.575 22.9775 23.2443 23.1811C23.6616 23.3081 23.886 23.5197 23.9956 23.7415C24.0816 23.9149 23.9425 24.1164 23.7496 24.0983C23.0246 24.0298 21.3118 23.9538 20.4705 24.6426C19.386 25.5296 17.0395 28.1918 14.0372 29.148C11.0349 30.1042 3.9082 29.7293 3.9082 29.7293C3.9082 29.7293 8.82824 32.3277 11.6625 32.6099C14.4968 32.8921 18.5742 31.0577 20.6351 32.2457C21.3225 32.6415 21.8628 33.0312 22.2774 33.3746C23.3182 34.236 24.6507 34.6715 26 34.6097C28.1859 34.5089 31.1088 33.9988 31.9857 32.0683" fill="#941EF3"/>
<path d="M34.4101 10.8763C34.4101 10.8763 34.3611 9.84215 33.5789 8.80465C32.6476 7.56961 31.086 6.98702 29.5546 7.20608C27.6248 7.48225 23.8397 7.73087 22.3681 5.76608C21.9273 5.17745 21.1821 4.90397 20.4779 5.11496C19.7515 5.33268 18.9075 5.75668 18.3397 6.58452C17.1524 8.31547 14.7004 9.41076 12.5005 8.6071C12.5005 8.6071 12.7094 10.2332 13.9277 11.475C14.3322 11.8869 14.9349 12.0415 15.4853 11.8674C16.3319 11.6006 17.694 11.3036 18.3827 11.8681C19.4263 12.7235 19.4505 14.32 20.9079 14.736C22.3654 15.1519 24.2126 13.9182 24.2126 13.9182C24.2126 13.9182 23.2692 17.2464 19.3598 17.7047C16.7176 17.616 14.9773 17.1093 12.5011 18.5795C10.3825 20.0505 10.4913 20.6559 10.4913 20.6559C10.4913 20.6559 16.2728 19.7891 17.4259 21.1128C18.5789 22.4366 19.2375 23.2913 20.7225 23.763C22.2075 24.2347 22.575 22.9775 23.2443 23.1811C23.6616 23.3081 23.886 23.5197 23.9956 23.7415C24.0816 23.9149 23.9425 24.1164 23.7496 24.0983C23.0246 24.0298 21.3118 23.9538 20.4705 24.6426C19.386 25.5296 17.0395 28.1918 14.0372 29.148C11.0349 30.1042 3.9082 29.7293 3.9082 29.7293C3.9082 29.7293 8.82824 32.3277 11.6625 32.6099C14.4968 32.8921 18.5742 31.0577 20.6351 32.2457C21.3225 32.6415 21.8628 33.0312 22.2774 33.3746C23.3182 34.236 24.6507 34.6715 26 34.6097C28.1859 34.5089 31.1088 33.9988 31.9857 32.0683" stroke="#941EF3" stroke-width="0.535329" stroke-miterlimit="10"/>
<path d="M52.7445 22.2578C52.7445 29.271 47.0598 34.9557 40.0466 34.9557C33.0334 34.9557 27.3467 29.271 27.3467 22.2578C27.3467 16.049 31.8051 10.877 37.6968 9.77564V8.11323C36.6297 8.01849 35.7911 8.07224 35.5902 7.26388C35.5317 7.01997 35.5667 6.80696 35.646 6.62553C35.8294 6.20959 36.2628 5.95962 36.7177 5.96164C38.0435 5.97038 41.8313 5.98717 42.7498 5.95962C43.6335 5.9314 44.4055 5.95089 44.671 6.48778C44.8242 6.80024 44.7335 7.17519 44.4963 7.42986C43.8539 8.11995 42.7498 8.01378 42.7498 8.01378V9.8462C48.4648 11.086 52.7445 16.1713 52.7445 22.2572V22.2578Z" fill="#941EF3" stroke="#941EF3" stroke-width="0.535329" stroke-miterlimit="10"/>
<path d="M40.0955 33.1507C46.1349 33.1507 51.0309 28.2548 51.0309 22.2154C51.0309 16.176 46.1349 11.28 40.0955 11.28C34.0561 11.28 29.1602 16.176 29.1602 22.2154C29.1602 28.2548 34.0561 33.1507 40.0955 33.1507Z" fill="white" stroke="#941EF3" stroke-width="0.535329" stroke-miterlimit="10"/>
<path d="M42.4567 24.9703L42.495 24.9582L41.3936 23.6217C42.5239 21.6576 40.1142 21.1214 40.1142 21.1214L37.0186 15.053L39.0579 21.5528C39.0579 21.5528 37.7134 23.6231 39.8959 24.2332L40.0457 25.9581C40.8238 25.569 41.6295 25.2384 42.4567 24.9697V24.9703Z" fill="#941EF3"/>
<path d="M44.5911 12.8989L43.8721 14.3833" stroke="#941EF3" stroke-width="0.535329" stroke-miterlimit="10" stroke-linecap="round"/>
<path d="M39.9736 11.8835V13.6407" stroke="#941EF3" stroke-width="0.535329" stroke-miterlimit="10" stroke-linecap="round"/>
<path d="M36.1279 12.7617L36.7985 14.2561" stroke="#941EF3" stroke-width="0.535329" stroke-miterlimit="10" stroke-linecap="round"/>
<path d="M32.3789 15.4087L33.5044 16.6222" stroke="#941EF3" stroke-width="0.535329" stroke-miterlimit="10" stroke-linecap="round"/>
<path d="M30.1396 19.6143L31.4883 20.2775" stroke="#941EF3" stroke-width="0.535329" stroke-miterlimit="10" stroke-linecap="round"/>
<path d="M29.8906 24.2776L31.4885 24.1345" stroke="#941EF3" stroke-width="0.535329" stroke-miterlimit="10" stroke-linecap="round"/>
<path d="M31.6797 28.3922L32.9423 27.4407" stroke="#941EF3" stroke-width="0.535329" stroke-miterlimit="10" stroke-linecap="round"/>
<path d="M35.085 31.336L35.7777 29.98" stroke="#941EF3" stroke-width="0.535329" stroke-miterlimit="10" stroke-linecap="round"/>
<path d="M39.6369 32.2491L39.5986 30.9429" stroke="#941EF3" stroke-width="0.535329" stroke-miterlimit="10" stroke-linecap="round"/>
<path d="M44.0751 31.336L43.3447 29.98" stroke="#941EF3" stroke-width="0.535329" stroke-miterlimit="10" stroke-linecap="round"/>
<path d="M47.7139 28.687L46.542 27.9163" stroke="#941EF3" stroke-width="0.535329" stroke-miterlimit="10" stroke-linecap="round"/>
<path d="M49.8525 24.619L48.2754 24.1345" stroke="#941EF3" stroke-width="0.535329" stroke-miterlimit="10" stroke-linecap="round"/>
<path d="M49.852 19.8301L48.4678 20.5061" stroke="#941EF3" stroke-width="0.535329" stroke-miterlimit="10" stroke-linecap="round"/>
<path d="M47.1279 16.6221L48.0384 15.6975" stroke="#941EF3" stroke-width="0.535329" stroke-miterlimit="10" stroke-linecap="round"/>
</svg>
