<svg width="41" height="40" viewBox="0 0 41 40" fill="none" xmlns="http://www.w3.org/2000/svg">
<path d="M20.3247 33.3346C17.2305 33.3346 14.2631 32.1055 12.0751 29.9175C9.8872 27.7296 8.65804 24.7622 8.65804 21.668C8.65804 18.5738 9.8872 15.6063 12.0751 13.4184C14.2631 11.2305 17.2305 10.0013 20.3247 10.0013C23.4189 10.0013 26.3864 11.2305 28.5743 13.4184C30.7622 15.6063 31.9914 18.5738 31.9914 21.668C31.9914 24.7622 30.7622 27.7296 28.5743 29.9175C26.3864 32.1055 23.4189 33.3346 20.3247 33.3346ZM32.0414 12.318L34.408 9.9513C33.658 9.1013 32.908 8.33464 32.058 7.6013L29.6914 10.0013C27.108 7.9013 23.858 6.66797 20.3247 6.66797C16.3465 6.66797 12.5312 8.24832 9.7181 11.0614C6.90506 13.8744 5.32471 17.6897 5.32471 21.668C5.32471 25.6462 6.90506 29.4615 9.7181 32.2746C12.5312 35.0876 16.3465 36.668 20.3247 36.668C28.658 36.668 35.3247 29.9513 35.3247 21.668C35.3247 18.1346 34.0914 14.8846 32.0414 12.318ZM18.658 23.3346H21.9914V13.3346H18.658M25.3247 1.66797H15.3247V5.0013H25.3247V1.66797Z" fill="#941EF3"/>
</svg>
